<svg width="204" height="143" viewBox="0 0 204 143" fill="none" xmlns="http://www.w3.org/2000/svg">
<path d="M12.5025 21.5027L70.5025 130.003" stroke="#272929" stroke-opacity="0.98" stroke-width="25" stroke-linecap="round"/>
<path d="M125.88 20.5027L70.2699 130.247" stroke="#272929" stroke-opacity="0.98" stroke-width="25" stroke-linecap="round"/>
<path d="M126.002 21.5027L184.002 130.003" stroke="#272929" stroke-opacity="0.98" stroke-width="25" stroke-linecap="round"/>
<path d="M20.0025 13.5027L78.0025 122.003" stroke="#1F8786" stroke-width="25" stroke-linecap="round"/>
<path d="M133.38 12.5027L77.7699 122.247" stroke="#1F8786" stroke-width="25" stroke-linecap="round"/>
<path d="M133.502 13.5027L191.502 122.003" stroke="#1F8786" stroke-width="25" stroke-linecap="round"/>
<path d="M85.5025 24.0027C85.5025 30.9062 79.906 36.5027 73.0025 36.5027C66.0989 36.5027 60.5025 30.9062 60.5025 24.0027C60.5025 17.0991 66.0989 11.5027 73.0025 11.5027C79.906 11.5027 85.5025 17.0991 85.5025 24.0027Z" fill="#272929"/>
<path d="M89.5025 18.0027C89.5025 24.9062 83.906 30.5027 77.0025 30.5027C70.0989 30.5027 64.5025 24.9062 64.5025 18.0027C64.5025 11.0991 70.0989 5.50269 77.0025 5.50269C83.906 5.50269 89.5025 11.0991 89.5025 18.0027Z" fill="#F29D2A"/>
<path d="M145.502 121.003C145.502 127.906 139.906 133.503 133.002 133.503C126.099 133.503 120.502 127.906 120.502 121.003C120.502 114.099 126.099 108.503 133.002 108.503C139.906 108.503 145.502 114.099 145.502 121.003Z" fill="#272929"/>
<path d="M149.502 115.003C149.502 121.906 143.906 127.503 137.002 127.503C130.099 127.503 124.502 121.906 124.502 115.003C124.502 108.099 130.099 102.503 137.002 102.503C143.906 102.503 149.502 108.099 149.502 115.003Z" fill="#F29D2A"/>
</svg>
