<?xml version="1.0" encoding="iso-8859-1"?>
<!-- Uploaded to: SVG Repo, www.svgrepo.com, Generator: SVG Repo Mixer Tools -->
<svg height="800px" width="800px" version="1.1" id="Layer_1" xmlns="http://www.w3.org/2000/svg" xmlns:xlink="http://www.w3.org/1999/xlink" 
	 viewBox="0 0 512 512" xml:space="preserve">
<path style="fill:#DEDEE0;" d="M418.909,186.183v-46.545h46.545v-0.002V93.092v-0.002h-46.545V46.545h46.545V23.273
	C465.455,10.42,475.875,0,488.727,0h-93.091h-93.091h-93.091h-93.091H23.273C10.42,0,0,10.42,0,23.273v0.026
	C0,10.446,10.42,0.026,23.273,0.026s23.273,10.42,23.273,23.273v23.246h46.545v46.545H46.545v0.002v46.544v0.002h46.545v46.545
	H46.545v46.545h69.818h93.091h93.091h93.091h69.818v-46.545L418.909,186.183L418.909,186.183z M186.182,186.183h-46.545v-46.545
	h46.545V186.183z M186.182,93.091h-46.545V46.545h46.545V93.091z M279.273,186.183h-46.545v-46.545h46.545V186.183z M279.273,93.091
	h-46.545V46.545h46.545V93.091z M372.364,186.183h-46.545v-46.545h46.545V186.183z M372.364,93.091h-46.545V46.545h46.545V93.091z"
	/>
<path style="fill:#A9A8AE;" d="M46.545,139.638L46.545,139.638V93.092v-0.002V46.545V23.299c0-12.853-10.42-23.273-23.273-23.273
	S0,10.446,0,23.299v93.065v0.002v93.091v279.271C0,501.582,10.42,512,23.273,512s23.273-10.418,23.273-23.273V232.729v-46.545
	V139.638z"/>
<path style="fill:#77757F;" d="M499.07,2.42c-1.769-0.878-3.665-1.539-5.652-1.947C491.902,0.163,490.335,0,488.727,0
	c-12.853,0-23.273,10.42-23.273,23.273v23.273v46.545v0.002v46.544v0.002v46.545v46.545v255.998
	c0,12.854,10.42,23.273,23.273,23.273S512,501.582,512,488.727V209.456v-93.091v-0.002V23.273C512,14.134,506.733,6.228,499.07,2.42
	z"/>
<path style="fill:#C3C3C7;" d="M232.727,186.183v-46.545h19.859V93.091h-19.859V46.545h19.859V0h-43.132h-93.091H23.273
	C10.42,0,0,10.42,0,23.273v0.026C0,10.446,10.42,0.026,23.273,0.026s23.273,10.42,23.273,23.273v23.246h46.545v46.545H46.545v0.002
	v46.544v0.002h46.545v46.545H46.545v46.545h69.818h93.091h43.132v-46.545L232.727,186.183L232.727,186.183z M186.182,186.183
	h-46.545v-46.545h46.545V186.183z M186.182,93.091h-46.545V46.545h46.545V93.091z"/>
<path style="fill:#57575C;" d="M0,116.365v93.091v279.271C0,501.582,10.42,512,23.273,512s23.273-10.418,23.273-23.273V232.729
	v-46.545v-46.545v-0.002V93.092v-0.002V46.545V23.299c0-12.853-10.42-23.273-23.273-23.273S0,10.446,0,23.299V116.365L0,116.365z"/>
</svg>