<svg xmlns="http://www.w3.org/2000/svg" xmlns:xlink="http://www.w3.org/1999/xlink" width="1080" zoomAndPan="magnify" viewBox="0 0 810 1439.999935" height="1920" preserveAspectRatio="xMidYMid meet" version="1.0"><defs><filter x="0%" y="0%" width="100%" height="100%" id="c5a3c09659"><feColorMatrix values="0 0 0 0 1 0 0 0 0 1 0 0 0 0 1 0 0 0 1 0" color-interpolation-filters="sRGB"/></filter><mask id="52b8cafcbf"><g filter="url(#c5a3c09659)"><rect x="-81" width="972" fill="#000000" y="-143.999994" height="1727.999922" fill-opacity="0.04"/></g></mask><clipPath id="73daf4442f"><path d="M 23 0 L 26 0 L 26 1440 L 23 1440 Z M 23 0 " clip-rule="nonzero"/></clipPath><clipPath id="a44f4528c3"><path d="M 132 0 L 135 0 L 135 1440 L 132 1440 Z M 132 0 " clip-rule="nonzero"/></clipPath><clipPath id="13a56de2e5"><path d="M 240 0 L 243 0 L 243 1440 L 240 1440 Z M 240 0 " clip-rule="nonzero"/></clipPath><clipPath id="d7f7aef7dd"><path d="M 349 0 L 352 0 L 352 1440 L 349 1440 Z M 349 0 " clip-rule="nonzero"/></clipPath><clipPath id="35ead2897d"><path d="M 458 0 L 461 0 L 461 1440 L 458 1440 Z M 458 0 " clip-rule="nonzero"/></clipPath><clipPath id="703db87b3c"><path d="M 566 0 L 569 0 L 569 1440 L 566 1440 Z M 566 0 " clip-rule="nonzero"/></clipPath><clipPath id="dd7469a197"><path d="M 675 0 L 678 0 L 678 1440 L 675 1440 Z M 675 0 " clip-rule="nonzero"/></clipPath><clipPath id="dba9b4711c"><path d="M 784 0 L 787 0 L 787 1440 L 784 1440 Z M 784 0 " clip-rule="nonzero"/></clipPath><clipPath id="58e7332c5d"><path d="M 0 12 L 810 12 L 810 15 L 0 15 Z M 0 12 " clip-rule="nonzero"/></clipPath><clipPath id="c09fad53cc"><path d="M 0 121 L 810 121 L 810 124 L 0 124 Z M 0 121 " clip-rule="nonzero"/></clipPath><clipPath id="7821216eeb"><path d="M 0 229 L 810 229 L 810 232 L 0 232 Z M 0 229 " clip-rule="nonzero"/></clipPath><clipPath id="521a9acf9d"><path d="M 0 338 L 810 338 L 810 341 L 0 341 Z M 0 338 " clip-rule="nonzero"/></clipPath><clipPath id="b69a134f77"><path d="M 0 447 L 810 447 L 810 450 L 0 450 Z M 0 447 " clip-rule="nonzero"/></clipPath><clipPath id="462ab5ee2f"><path d="M 0 555 L 810 555 L 810 558 L 0 558 Z M 0 555 " clip-rule="nonzero"/></clipPath><clipPath id="882475587e"><path d="M 0 664 L 810 664 L 810 667 L 0 667 Z M 0 664 " clip-rule="nonzero"/></clipPath><clipPath id="68c26f42d0"><path d="M 0 773 L 810 773 L 810 776 L 0 776 Z M 0 773 " clip-rule="nonzero"/></clipPath><clipPath id="0fc338f8e4"><path d="M 0 881 L 810 881 L 810 884 L 0 884 Z M 0 881 " clip-rule="nonzero"/></clipPath><clipPath id="649de4a641"><path d="M 0 990 L 810 990 L 810 993 L 0 993 Z M 0 990 " clip-rule="nonzero"/></clipPath><clipPath id="5170dd90cf"><path d="M 0 1099 L 810 1099 L 810 1102 L 0 1102 Z M 0 1099 " clip-rule="nonzero"/></clipPath><clipPath id="ec03ac1f8c"><path d="M 0 1208 L 810 1208 L 810 1211 L 0 1211 Z M 0 1208 " clip-rule="nonzero"/></clipPath><clipPath id="fc05d8ad11"><path d="M 0 1316 L 810 1316 L 810 1319 L 0 1319 Z M 0 1316 " clip-rule="nonzero"/></clipPath><clipPath id="ab29a43b75"><path d="M 0 1425 L 810 1425 L 810 1428 L 0 1428 Z M 0 1425 " clip-rule="nonzero"/></clipPath><clipPath id="23aa214b0d"><rect x="0" width="810" y="0" height="1440"/></clipPath></defs><g mask="url(#52b8cafcbf)"><g transform="matrix(1, 0, 0, 1, 0, -0.000000000000101068)"><g clip-path="url(#23aa214b0d)"><g clip-path="url(#73daf4442f)"><path fill="#000000" d="M 23.347656 -69.199219 L 25.359375 -69.199219 L 25.359375 1943.800781 L 23.347656 1943.800781 Z M 23.347656 -69.199219 " fill-opacity="1" fill-rule="nonzero"/></g><g clip-path="url(#a44f4528c3)"><path fill="#000000" d="M 132.046875 -69.199219 L 134.0625 -69.199219 L 134.0625 1943.800781 L 132.046875 1943.800781 Z M 132.046875 -69.199219 " fill-opacity="1" fill-rule="nonzero"/></g><g clip-path="url(#13a56de2e5)"><path fill="#000000" d="M 240.75 -69.199219 L 242.761719 -69.199219 L 242.761719 1943.800781 L 240.75 1943.800781 Z M 240.75 -69.199219 " fill-opacity="1" fill-rule="nonzero"/></g><g clip-path="url(#d7f7aef7dd)"><path fill="#000000" d="M 349.453125 -69.199219 L 351.464844 -69.199219 L 351.464844 1943.800781 L 349.453125 1943.800781 Z M 349.453125 -69.199219 " fill-opacity="1" fill-rule="nonzero"/></g><g clip-path="url(#35ead2897d)"><path fill="#000000" d="M 458.152344 -69.199219 L 460.167969 -69.199219 L 460.167969 1943.800781 L 458.152344 1943.800781 Z M 458.152344 -69.199219 " fill-opacity="1" fill-rule="nonzero"/></g><g clip-path="url(#703db87b3c)"><path fill="#000000" d="M 566.855469 -69.199219 L 568.867188 -69.199219 L 568.867188 1943.800781 L 566.855469 1943.800781 Z M 566.855469 -69.199219 " fill-opacity="1" fill-rule="nonzero"/></g><g clip-path="url(#dd7469a197)"><path fill="#000000" d="M 675.558594 -69.199219 L 677.570312 -69.199219 L 677.570312 1943.800781 L 675.558594 1943.800781 Z M 675.558594 -69.199219 " fill-opacity="1" fill-rule="nonzero"/></g><g clip-path="url(#dba9b4711c)"><path fill="#000000" d="M 784.261719 -69.199219 L 786.273438 -69.199219 L 786.273438 1943.800781 L 784.261719 1943.800781 Z M 784.261719 -69.199219 " fill-opacity="1" fill-rule="nonzero"/></g><g clip-path="url(#58e7332c5d)"><path fill="#000000" d="M -601.691406 12.328125 L 1411.308594 12.328125 L 1411.308594 14.339844 L -601.691406 14.339844 Z M -601.691406 12.328125 " fill-opacity="1" fill-rule="nonzero"/></g><g clip-path="url(#c09fad53cc)"><path fill="#000000" d="M -601.691406 121.03125 L 1411.308594 121.03125 L 1411.308594 123.042969 L -601.691406 123.042969 Z M -601.691406 121.03125 " fill-opacity="1" fill-rule="nonzero"/></g><g clip-path="url(#7821216eeb)"><path fill="#000000" d="M -601.691406 229.730469 L 1411.308594 229.730469 L 1411.308594 231.746094 L -601.691406 231.746094 Z M -601.691406 229.730469 " fill-opacity="1" fill-rule="nonzero"/></g><g clip-path="url(#521a9acf9d)"><path fill="#000000" d="M -601.691406 338.433594 L 1411.308594 338.433594 L 1411.308594 340.445312 L -601.691406 340.445312 Z M -601.691406 338.433594 " fill-opacity="1" fill-rule="nonzero"/></g><g clip-path="url(#b69a134f77)"><path fill="#000000" d="M -601.691406 447.136719 L 1411.308594 447.136719 L 1411.308594 449.148438 L -601.691406 449.148438 Z M -601.691406 447.136719 " fill-opacity="1" fill-rule="nonzero"/></g><g clip-path="url(#462ab5ee2f)"><path fill="#000000" d="M -601.691406 555.835938 L 1411.308594 555.835938 L 1411.308594 557.851562 L -601.691406 557.851562 Z M -601.691406 555.835938 " fill-opacity="1" fill-rule="nonzero"/></g><g clip-path="url(#882475587e)"><path fill="#000000" d="M -601.691406 664.539062 L 1411.308594 664.539062 L 1411.308594 666.550781 L -601.691406 666.550781 Z M -601.691406 664.539062 " fill-opacity="1" fill-rule="nonzero"/></g><g clip-path="url(#68c26f42d0)"><path fill="#000000" d="M -601.691406 773.242188 L 1411.308594 773.242188 L 1411.308594 775.253906 L -601.691406 775.253906 Z M -601.691406 773.242188 " fill-opacity="1" fill-rule="nonzero"/></g><g clip-path="url(#0fc338f8e4)"><path fill="#000000" d="M -601.691406 881.945312 L 1411.308594 881.945312 L 1411.308594 883.957031 L -601.691406 883.957031 Z M -601.691406 881.945312 " fill-opacity="1" fill-rule="nonzero"/></g><g clip-path="url(#649de4a641)"><path fill="#000000" d="M -601.691406 990.644531 L 1411.308594 990.644531 L 1411.308594 992.660156 L -601.691406 992.660156 Z M -601.691406 990.644531 " fill-opacity="1" fill-rule="nonzero"/></g><g clip-path="url(#5170dd90cf)"><path fill="#000000" d="M -601.691406 1099.347656 L 1411.308594 1099.347656 L 1411.308594 1101.359375 L -601.691406 1101.359375 Z M -601.691406 1099.347656 " fill-opacity="1" fill-rule="nonzero"/></g><g clip-path="url(#ec03ac1f8c)"><path fill="#000000" d="M -601.691406 1208.050781 L 1411.308594 1208.050781 L 1411.308594 1210.0625 L -601.691406 1210.0625 Z M -601.691406 1208.050781 " fill-opacity="1" fill-rule="nonzero"/></g><g clip-path="url(#fc05d8ad11)"><path fill="#000000" d="M -601.691406 1316.75 L 1411.308594 1316.75 L 1411.308594 1318.765625 L -601.691406 1318.765625 Z M -601.691406 1316.75 " fill-opacity="1" fill-rule="nonzero"/></g><g clip-path="url(#ab29a43b75)"><path fill="#000000" d="M -601.691406 1425.453125 L 1411.308594 1425.453125 L 1411.308594 1427.464844 L -601.691406 1427.464844 Z M -601.691406 1425.453125 " fill-opacity="1" fill-rule="nonzero"/></g></g></g></g></svg>